#!OML:ASF X:\für Bonn\!DataBase\2005_08_11_Bastian_Final\c3d\Bastian.ASF
:FULLY-SPECIFIED
:DEGREES
31
root 27.637 17.345 -1.90453 364.348 -83.9407 -14.5888
lowerback 8.75126 -1.16827 0.0196363
upperback 10.623 -2.18244 1.67515
thorax 6.30949 -1.39986 1.7853
lowerneck 0.806064 -3.28745 -4.27713
upperneck 17.0397 -5.72672 6.34292
head 5.27836 -2.87525 2.42284
rclavicle -3.48867e-014 1.82882e-014
rhumerus -23.9161 11.9351 -84.3572
rradius 35.8687
rwrist -5.05913
rhand -17.702 0.0407718
rfingers 7.12502
rthumb 8.55796 -29.7658
lclavicle -3.48867e-014 1.82882e-014
lhumerus -14.4607 -19.8791 91.1099
lradius 35.8784
lwrist 19.9864
lhand -12.237 -9.85476
lfingers 7.12502
lthumb 13.8286 19.6656
rfemur -20.2809 10.9482 20.4061
rtibia 28.4084
rfoot -13.0991 -12.6698
rtoes -13.2918
lfemur 21.1251 0.786636 -18.2622
ltibia 13.6672
lfoot -10.2521 -14.3854
ltoes -6.45219
32
root 27.5169 17.3345 -1.92125 363.734 -83.6935 -14.0205
lowerback 8.79744 -1.20502 0.0485712
upperback 10.713 -2.24017 1.697
thorax 6.38496 -1.43178 1.79347
lowerneck 0.938873 -3.29013 -4.28606
upperneck 16.8791 -5.71439 6.31762
head 5.20508 -2.87334 2.42024
rclavicle 2.16675e-014 3.57812e-015
rhumerus -23.5385 12.2006 -84.3308
rradius 35.6721
rwrist -4.94184
rhand -17.7116 0.00907549
rfingers 7.12502
rthumb 8.54869 -29.7979
lclavicle 2.16675e-014 3.57812e-015
lhumerus -14.4265 -19.5505 91.1521
lradius 35.2294
lwrist 19.7575
lhand -12.1169 -9.3418
lfingers 7.12502
lthumb 13.9444 20.1706
rfemur -20.0044 10.5637 20.5434
rtibia 28.3771
rfoot -11.974 -11.9927
rtoes -13.7291
lfemur 20.9271 0.531136 -18.2006
ltibia 14.9593
lfoot -10.7791 -14.4629
ltoes -7.57176
33
root 27.3982 17.3233 -1.9382 363.532 -83.5015 -13.8808
lowerback 8.87862 -1.22917 0.122728
upperback 10.8106 -2.28196 1.74091
thorax 6.44822 -1.45437 1.80005
lowerneck 1.02617 -3.29055 -4.38085
upperneck 16.7636 -5.7026 6.32407
head 5.15665 -2.87373 2.44079
rclavicle -3.52843e-014 2.18663e-014
rhumerus -23.1462 12.5549 -84.269
rradius 35.5052
rwrist -4.92532
rhand -17.7354 -0.0355526
rfingers 7.12502
rthumb 8.52569 -29.8434
lclavicle -3.52843e-014 2.18663e-014
lhumerus -14.3767 -19.2172 91.1915
lradius 34.5517
lwrist 19.5732
lhand -12.0341 -8.87252
lfingers 7.12502
lthumb 14.0241 20.6344
rfemur -19.7413 10.1637 20.7339
rtibia 28.4043
rfoot -10.6681 -11.3686
rtoes -13.5302
lfemur 20.6564 0.366958 -18.0723
ltibia 16.4051
lfoot -11.3098 -14.5593
ltoes -8.83346
34
root 27.2801 17.3111 -1.95459 363.378 -83.3175 -13.7891
lowerback 8.9631 -1.23099 0.238471
upperback 10.9088 -2.29151 1.7759
thorax 6.5072 -1.45722 1.77327
lowerneck 1.11923 -3.31282 -4.46476
upperneck 16.6424 -5.72341 6.34711
head 5.10759 -2.88845 2.46328
rclavicle 6.06293e-015 -1.59028e-015
rhumerus -22.748 12.8413 -84.1961
rradius 35.3304
rwrist -4.85667
rhand -17.748 -0.107862
rfingers 7.12502
rthumb 8.51352 -29.9162
lclavicle 6.06293e-015 -1.59028e-015
lhumerus -14.3585 -19.0592 91.2272
lradius 33.8799
lwrist 19.4919
lhand -12.0634 -8.48435
lfingers 7.12502
lthumb 13.9959 21.0245
rfemur -19.5002 9.62479 20.9454
rtibia 28.5015
rfoot -9.31416 -10.7153
rtoes -12.957
lfemur 20.2962 0.275657 -17.9064
ltibia 17.996
lfoot -11.7681 -14.7441
ltoes -9.94844
35
root 27.1629 17.2982 -1.97132 363.292 -83.1439 -13.7471
lowerback 9.01913 -1.23689 0.339917
upperback 11.0214 -2.30998 1.82786
thorax 6.60002 -1.46689 1.77138
lowerneck 1.23199 -3.33317 -4.57219
upperneck 16.468 -5.73394 6.35513
head 5.03856 -2.90034 2.48606
rclavicle -7.45443e-015 9.54166e-015
rhumerus -22.3078 13.1892 -84.0891
rradius 35.1509
rwrist -4.86103
rhand -17.7744 -0.12705
rfingers 7.12502
rthumb 8.48808 -29.9365
lclavicle -7.45443e-015 9.54166e-015
lhumerus -14.3283 -18.8419 91.2535
lradius 33.1798
lwrist 19.4731
lhand -12.0897 -8.21059
lfingers 7.12502
lthumb 13.9706 21.3
rfemur -19.3153 9.09185 21.1528
rtibia 28.6845
rfoot -8.01811 -10.0941
rtoes -12.6068
lfemur 19.8455 0.179442 -17.7358
ltibia 19.7144
lfoot -12.1768 -14.9035
ltoes -10.8855
36
root 27.0501 17.2831 -1.98763 363.314 -82.9306 -13.8569
lowerback 9.18348 -1.25159 0.517249
upperback 11.1217 -2.33432 1.86229
thorax 6.61535 -1.4732 1.71277
lowerneck 1.34012 -3.36415 -4.60809
upperneck 16.3378 -5.75866 6.31263
head 4.98174 -2.91779 2.48031
rclavicle 2.04748e-014 2.38542e-015
rhumerus -21.8694 13.3747 -83.9999
rradius 34.9321
rwrist -4.70966
rhand -17.807 -0.140133
rfingers 7.12502
rthumb 8.45655 -29.9508
lclavicle 2.04748e-014 2.38542e-015
lhumerus -14.3308 -18.7198 91.2685
lradius 32.4466
lwrist 19.5032
lhand -12.2246 -7.99025
lfingers 7.12502
lthumb 13.8406 21.5293
rfemur -19.1122 8.47355 21.3839
rtibia 28.9404
rfoot -6.8284 -9.43882
rtoes -12.1579
lfemur 19.3474 0.108778 -17.5167
ltibia 21.545
lfoot -12.5091 -15.1036
ltoes -12.005
37
root 26.9419 17.2693 -2.00445 363.004 -82.6719 -13.6158
lowerback 9.37755 -1.27365 0.661346
upperback 11.2165 -2.36817 1.89229
thorax 6.60963 -1.48628 1.66959
lowerneck 1.47734 -3.39653 -4.6801
upperneck 16.1577 -5.78816 6.31917
head 4.90724 -2.93749 2.49649
rclavicle 4.59193e-014 -1.27222e-014
rhumerus -21.4565 13.6656 -83.905
rradius 34.8006
rwrist -4.71092
rhand -17.8364 -0.241734
rfingers 7.12502
rthumb 8.42823 -30.0536
lclavicle 4.59193e-014 -1.27222e-014
lhumerus -14.3419 -18.6136 91.2886
lradius 31.6978
lwrist 19.6123
lhand -12.3469 -7.82672
lfingers 7.12502
lthumb 13.7227 21.7008
rfemur -18.9518 7.84323 21.5525
rtibia 29.2524
rfoot -5.81444 -8.87721
rtoes -11.5578
lfemur 18.7356 -0.0216737 -17.3562
ltibia 23.4839
lfoot -12.7181 -15.2947
ltoes -12.9043
38
root 26.8371 17.2566 -2.02141 362.781 -82.3935 -13.4735
lowerback 9.60896 -1.29788 0.851034
upperback 11.3188 -2.40234 1.91275
thorax 6.58956 -1.4962 1.59224
lowerneck 1.5704 -3.44324 -4.74165
upperneck 16.0198 -5.84132 6.33865
head 4.85466 -2.96641 2.51288
rclavicle 2.14687e-014 -3.57812e-015
rhumerus -20.9893 13.8739 -83.7899
rradius 34.6144
rwrist -4.62402
rhand -17.864 -0.280825
rfingers 7.12502
rthumb 8.40154 -30.0937
lclavicle 2.14687e-014 -3.57812e-015
lhumerus -14.3572 -18.5343 91.2945
lradius 30.9427
lwrist 19.7697
lhand -12.4754 -7.68034
lfingers 7.12502
lthumb 13.5988 21.8555
rfemur -18.7962 7.17154 21.7255
rtibia 29.6035
rfoot -5.01078 -8.32615
rtoes -10.9276
lfemur 18.0508 -0.199478 -17.1977
ltibia 25.5152
lfoot -12.7939 -15.4644
ltoes -13.663
39
root 26.7366 17.2435 -2.03781 362.516 -82.0978 -13.3017
lowerback 9.8917 -1.32679 1.06556
upperback 11.4387 -2.44175 1.92296
thorax 6.55954 -1.50748 1.49212
lowerneck 1.62322 -3.50376 -4.76191
upperneck 15.8617 -5.90608 6.33184
head 4.80164 -2.99856 2.513
rclavicle 1.12313e-014 -1.19271e-015
rhumerus -20.4658 14.096 -83.6872
rradius 34.3954
rwrist -4.55235
rhand -17.9152 -0.321238
rfingers 7.12502
rthumb 8.35217 -30.1361
lclavicle 1.12313e-014 -1.19271e-015
lhumerus -14.3311 -18.397 91.2612
lradius 30.1248
lwrist 20.0553
lhand -12.596 -7.72857
lfingers 7.12502
lthumb 13.4826 21.815
rfemur -18.651 6.53019 21.8819
rtibia 29.9809
rfoot -4.38224 -7.88496
rtoes -10.9801
lfemur 17.2993 -0.36604 -17.0404
ltibia 27.6231
lfoot -12.6832 -15.6646
ltoes -14.3551
40
root 26.6397 17.2316 -2.05496 362.277 -81.8116 -13.1479
lowerback 10.202 -1.33492 1.30901
upperback 11.5592 -2.44875 1.90719
thorax 6.51223 -1.49902 1.34842
lowerneck 1.61319 -3.58683 -4.6904
upperneck 15.7607 -6.00392 6.30755
head 4.77564 -3.04127 2.4895
rclavicle 7.95139e-015 9.14409e-015
rhumerus -19.9624 14.2211 -83.605
rradius 34.2393
rwrist -4.44282
rhand -17.9968 -0.433882
rfingers 7.12502
rthumb 8.27343 -30.2519
lclavicle 7.95139e-015 9.14409e-015
lhumerus -14.302 -18.3621 91.2021
lradius 29.2904
lwrist 20.3512
lhand -12.7889 -7.71954
lfingers 7.12502
lthumb 13.2967 21.8363
rfemur -18.5225 5.8807 22.0355
rtibia 30.3482
rfoot -3.84727 -7.44726
rtoes -11.4359
lfemur 16.4594 -0.511376 -16.8775
ltibia 29.816
lfoot -12.3837 -15.879
ltoes -15.0237
41
root 26.5454 17.2205 -2.07255 362.15 -81.5492 -13.1231
lowerback 10.5415 -1.32615 1.55712
upperback 11.7141 -2.43727 1.91758
thorax 6.48897 -1.48394 1.22916
lowerneck 1.5244 -3.68031 -4.65356
upperneck 15.6478 -6.11025 6.29543
head 4.76094 -3.08683 2.47345
rclavicle 3.95581e-014 -1.35174e-014
rhumerus -19.337 14.3405 -83.4612
rradius 34.0136
rwrist -4.37677
rhand -18.0768 -0.499045
rfingers 7.12502
rthumb 8.19623 -30.3201
lclavicle 3.95581e-014 -1.35174e-014
lhumerus -14.166 -18.1682 91.1786
lradius 28.3489
lwrist 20.4794
lhand -13.0643 -7.74691
lfingers 7.12502
lthumb 13.0312 21.8261
rfemur -18.3672 5.32877 22.1945
rtibia 30.6825
rfoot -3.39709 -7.11474
rtoes -11.7553
lfemur 15.5581 -0.667577 -16.7112
ltibia 32.1152
lfoot -11.848 -16.0509
ltoes -15.8066
